ply
format ascii 1.0
comment Created by Blender 2.68 (sub 0) - www.blender.org, source file: ''
element vertex 242
property float x
property float y
property float z
property float nx
property float ny
property float nz
property float s
property float t
element face 480
property list uchar uint vertex_indices
end_header
-0.207867 -0.138893 0.000000 -0.835139 -0.550005 0.000000 0.461480 0.377462
-0.230970 -0.095671 0.000000 -0.925596 -0.378430 0.000000 0.457199 0.385472
-0.213388 -0.095671 -0.088388 -0.855159 -0.378430 -0.354198 0.461607 0.388802
-0.207867 0.138893 0.000000 -0.835139 0.550005 0.000000 0.461480 0.428938
-0.176777 0.176777 0.000000 -0.713095 0.701041 0.000000 0.467242 0.435959
-0.163320 0.176777 -0.067650 -0.658803 0.701041 -0.272866 0.470414 0.437394
-0.176777 -0.176777 0.000000 -0.713095 -0.701041 0.000000 0.467242 0.370442
-0.163320 -0.176777 -0.067650 -0.658803 -0.701041 -0.272866 0.470414 0.373345
-0.230970 0.095671 0.000000 -0.925596 0.378430 0.000000 0.457199 0.420929
-0.192044 0.138893 -0.079547 -0.771569 0.550005 -0.319590 0.465347 0.430804
-0.138893 -0.207867 0.000000 -0.563891 -0.825831 0.000000 0.474262 0.364681
-0.245196 0.048773 0.000000 -0.981231 0.192785 0.000000 0.454563 0.412238
-0.213388 0.095671 -0.088388 -0.855159 0.378430 -0.354198 0.461607 0.423228
-0.095671 -0.230970 0.000000 -0.393017 -0.919523 0.000000 0.482271 0.360400
-0.128320 -0.207867 -0.053152 -0.520981 -0.825831 -0.215796 0.476642 0.367075
-0.250000 0.000000 0.000000 -1.000000 0.000000 0.000000 0.453673 0.403200
-0.226532 0.048773 -0.093833 -0.906522 0.192785 -0.375500 0.459315 0.414943
-0.095671 0.230970 0.000000 -0.393017 0.919523 0.000000 0.482271 0.446001
-0.048773 0.245196 0.000000 -0.206793 0.978362 0.000000 0.490962 0.448637
-0.045060 0.245196 -0.018664 -0.191046 0.978362 -0.079134 0.491702 0.448960
-0.048773 -0.245196 0.000000 -0.206793 -0.978362 0.000000 0.490962 0.357763
-0.088388 -0.230970 -0.036612 -0.363109 -0.919523 -0.150395 0.483822 0.362110
-0.245196 -0.048773 0.000000 -0.981231 -0.192785 0.000000 0.454563 0.394162
-0.226532 -0.048773 -0.093833 -0.906522 -0.192785 -0.375500 0.459315 0.397424
-0.138893 0.207867 0.000000 -0.563891 0.825831 0.000000 0.474262 0.441720
-0.128320 0.207867 -0.053152 -0.520981 0.825831 -0.215796 0.476642 0.442751
-0.098212 -0.207867 -0.098212 -0.398724 -0.825831 -0.398724 0.482387 0.369039
-0.230970 0.000000 -0.095671 -0.923856 0.000000 -0.382672 0.458543 0.406240
-0.173380 0.048773 -0.173380 -0.693838 0.192785 -0.693838 0.469654 0.417108
-0.088388 0.230970 -0.036612 -0.363109 0.919523 -0.150395 0.483822 0.446663
-0.034487 0.245196 -0.034487 -0.146214 0.978362 -0.146214 0.493683 0.449231
-0.045060 -0.245196 -0.018664 -0.191046 -0.978362 -0.079134 0.491702 0.358657
-0.034487 -0.245196 -0.034487 -0.146214 -0.978362 -0.146214 0.493683 0.359406
-0.176777 0.000000 -0.176777 -0.707083 0.000000 -0.707083 0.469093 0.408671
-0.067649 0.230970 -0.067650 -0.277902 0.919523 -0.277902 0.487745 0.447211
-0.173380 -0.048773 -0.173380 -0.693838 -0.192785 -0.693838 0.469654 0.400035
-0.098212 0.207867 -0.098212 -0.398724 0.825831 -0.398724 0.482387 0.443597
-0.192044 -0.138893 -0.079547 -0.771569 -0.550005 -0.319590 0.465347 0.380679
-0.163320 -0.095671 -0.163320 -0.654500 -0.378430 -0.654500 0.471322 0.391478
-0.146984 0.138893 -0.146985 -0.590533 0.550005 -0.590533 0.474055 0.432310
-0.146984 -0.138893 -0.146985 -0.590533 -0.550005 -0.590533 0.474055 0.383276
-0.125000 -0.176777 -0.125000 -0.504227 -0.701041 -0.504227 0.477778 0.375707
-0.163320 0.095671 -0.163320 -0.654500 0.378430 -0.654500 0.471322 0.425075
-0.079547 -0.138893 -0.192044 -0.319590 -0.550005 -0.771569 0.486160 0.384949
-0.079547 0.138893 -0.192044 -0.319590 0.550005 -0.771569 0.486160 0.433280
-0.067649 -0.176777 -0.163320 -0.272866 -0.701041 -0.658803 0.488121 0.377236
-0.093833 0.048773 -0.226532 -0.375500 0.192785 -0.906522 0.483852 0.418495
-0.067649 -0.230970 -0.067650 -0.277902 -0.919523 -0.277902 0.487745 0.363528
-0.036612 -0.230970 -0.088388 -0.150395 -0.919523 -0.363109 0.493413 0.364459
-0.036612 0.230970 -0.088388 -0.150395 0.919523 -0.363109 0.493413 0.447571
-0.095671 0.000000 -0.230970 -0.382672 0.000000 -0.923856 0.483558 0.410226
-0.053152 0.207867 -0.128320 -0.215796 0.825831 -0.520981 0.490561 0.444149
-0.093833 -0.048773 -0.226532 -0.375500 -0.192785 -0.906522 0.483852 0.401707
-0.125000 0.176777 -0.125000 -0.504227 0.701041 -0.504227 0.477778 0.438561
-0.088388 -0.095671 -0.213388 -0.354198 -0.378430 -0.855159 0.484725 0.393194
-0.067649 0.176777 -0.163320 -0.272866 0.701041 -0.658803 0.488121 0.439317
0.000000 0.207867 -0.138893 0.000000 0.825831 -0.563891 0.500000 0.444340
0.000000 -0.048773 -0.245196 0.000000 -0.192785 -0.981231 0.500000 0.402281
0.000000 -0.095671 -0.230970 0.000000 -0.378430 -0.925596 0.500000 0.393785
0.000000 0.176777 -0.176777 0.000000 0.701041 -0.713095 0.500000 0.439578
0.000000 -0.138893 -0.207867 0.000000 -0.550005 -0.835139 0.500000 0.385525
-0.088388 0.095671 -0.213388 -0.354198 0.378430 -0.855159 0.484725 0.426261
0.000000 0.138893 -0.207867 0.000000 0.550005 -0.835139 0.500000 0.433614
-0.053152 -0.207867 -0.128320 -0.215796 -0.825831 -0.520981 0.490561 0.370319
0.000000 -0.176777 -0.176777 0.000000 -0.701041 -0.713095 0.500000 0.377764
0.000000 0.048773 -0.245196 0.000000 0.192785 -0.981231 0.500000 0.418971
0.000000 -0.230970 -0.095671 0.000000 -0.919523 -0.393017 0.500000 0.364783
-0.018664 0.245196 -0.045060 -0.079134 0.978362 -0.191046 0.496593 0.449410
0.000000 0.230970 -0.095671 0.000000 0.919523 -0.393017 0.500000 0.447697
-0.018664 -0.245196 -0.045060 -0.079134 -0.978362 -0.191046 0.496593 0.359902
0.000000 -0.245196 -0.048773 0.000000 -0.978362 -0.206793 0.500000 0.360076
0.000000 0.000000 -0.250000 0.000000 0.000000 -1.000000 0.500000 0.410760
0.000000 0.095671 -0.230970 0.000000 0.378430 -0.925596 0.500000 0.426668
0.093833 0.048773 -0.226532 0.375500 0.192785 -0.906522 0.516149 0.418495
0.000000 -0.207867 -0.138893 0.000000 -0.825831 -0.563891 0.500000 0.370763
0.036612 -0.230970 -0.088388 0.150395 -0.919523 -0.363109 0.506587 0.364459
0.000000 0.245196 -0.048773 0.000000 0.978362 -0.206793 0.500000 0.449472
0.018665 0.245196 -0.045060 0.079134 0.978362 -0.191046 0.503407 0.449410
0.018665 -0.245196 -0.045060 0.079134 -0.978362 -0.191046 0.503407 0.359902
0.093833 -0.048773 -0.226532 0.375500 -0.192785 -0.906522 0.516149 0.401707
0.036612 0.230970 -0.088388 0.150395 0.919523 -0.363109 0.506587 0.447571
0.067650 0.176777 -0.163320 0.272866 0.701041 -0.658803 0.511879 0.439317
0.088388 -0.095671 -0.213388 0.354198 -0.378430 -0.855159 0.515275 0.393194
0.067650 -0.176777 -0.163320 0.272866 -0.701041 -0.658803 0.511879 0.377236
0.088388 0.095671 -0.213388 0.354198 0.378430 -0.855159 0.515275 0.426261
0.079548 -0.138893 -0.192044 0.319590 -0.550005 -0.771569 0.513840 0.384949
0.163320 -0.095671 -0.163320 0.654500 -0.378430 -0.654500 0.528678 0.391478
0.079548 0.138893 -0.192044 0.319590 0.550005 -0.771569 0.513840 0.433280
0.125000 0.176777 -0.125000 0.504227 0.701041 -0.504227 0.522222 0.438561
0.146985 -0.138893 -0.146984 0.590533 -0.550005 -0.590533 0.525945 0.383276
0.146985 0.138893 -0.146984 0.590533 0.550005 -0.590533 0.525945 0.432310
0.053152 -0.207867 -0.128320 0.215796 -0.825831 -0.520981 0.509439 0.370319
0.098212 -0.207867 -0.098212 0.398724 -0.825831 -0.398724 0.517613 0.369039
0.173380 0.048773 -0.173380 0.693838 0.192785 -0.693838 0.530346 0.417108
0.067650 -0.230970 -0.067650 0.277902 -0.919523 -0.277902 0.512255 0.363528
0.095671 0.000000 -0.230970 0.382672 0.000000 -0.923856 0.516442 0.410226
0.067650 0.230970 -0.067650 0.277902 0.919523 -0.277902 0.512255 0.447211
0.176777 0.000000 -0.176777 0.707083 0.000000 -0.707083 0.530907 0.408671
0.053152 0.207867 -0.128320 0.215796 0.825831 -0.520981 0.509439 0.444149
0.173380 -0.048773 -0.173380 0.693838 -0.192785 -0.693838 0.530346 0.400035
0.098212 0.207867 -0.098212 0.398724 0.825831 -0.398724 0.517613 0.443597
0.034488 -0.245196 -0.034487 0.146214 -0.978362 -0.146214 0.506317 0.359406
0.088388 -0.230970 -0.036612 0.363109 -0.919523 -0.150395 0.516178 0.362110
0.226532 -0.048773 -0.093833 0.906522 -0.192785 -0.375500 0.540685 0.397424
0.088388 0.230970 -0.036612 0.363109 0.919523 -0.150395 0.516178 0.446663
0.163320 0.176777 -0.067650 0.658803 0.701041 -0.272866 0.529587 0.437394
0.213388 -0.095671 -0.088388 0.855159 -0.378430 -0.354198 0.538393 0.388802
0.125000 -0.176777 -0.125000 0.504227 -0.701041 -0.504227 0.522222 0.375707
0.192045 -0.138893 -0.079547 0.771569 -0.550005 -0.319590 0.534653 0.380679
0.163320 0.095671 -0.163320 0.654500 0.378430 -0.654500 0.528678 0.425075
0.192045 0.138893 -0.079547 0.771569 0.550005 -0.319590 0.534653 0.430804
0.163320 -0.176777 -0.067650 0.658803 -0.701041 -0.272866 0.529587 0.373345
0.226532 0.048773 -0.093833 0.906522 0.192785 -0.375500 0.540685 0.414943
0.128320 -0.207867 -0.053152 0.520981 -0.825831 -0.215796 0.523358 0.367075
0.034488 0.245196 -0.034487 0.146214 0.978362 -0.146214 0.506317 0.449231
0.045060 0.245196 -0.018664 0.191046 0.978362 -0.079134 0.508298 0.448960
0.176777 -0.176777 0.000000 0.713095 -0.701041 0.000000 0.532758 0.370442
0.213388 0.095671 -0.088388 0.855159 0.378430 -0.354198 0.538393 0.423228
0.245196 0.048773 0.000000 0.981231 0.192785 0.000000 0.545437 0.412238
0.095671 -0.230970 0.000000 0.393017 -0.919523 0.000000 0.517729 0.360400
0.230970 0.000000 -0.095671 0.923856 0.000000 -0.382672 0.541457 0.406240
0.095671 0.230970 0.000000 0.393017 0.919523 0.000000 0.517729 0.446001
0.045060 -0.245196 -0.018664 0.191046 -0.978362 -0.079134 0.508298 0.358657
0.250000 0.000000 0.000000 0.999969 0.000000 0.000000 0.546327 0.403200
0.128320 0.207867 -0.053152 0.520981 0.825831 -0.215796 0.523358 0.442751
0.138893 0.207867 0.000000 0.563891 0.825831 0.000000 0.525738 0.441720
0.245196 -0.048773 0.000000 0.981231 -0.192785 0.000000 0.545437 0.394162
0.230970 -0.095671 0.000000 0.925596 -0.378430 0.000000 0.542801 0.385472
0.176777 0.176777 0.000000 0.713095 0.701041 0.000000 0.532758 0.435959
0.230970 0.095671 0.000000 0.925596 0.378430 0.000000 0.542801 0.420929
0.207868 -0.138893 0.000000 0.835139 -0.550005 0.000000 0.538520 0.377462
0.213388 -0.095671 0.088388 0.855159 -0.378430 0.354198 0.540764 0.381936
0.207868 0.138893 0.000000 0.835139 0.550005 0.000000 0.538520 0.428938
0.163320 0.176777 0.067650 0.658803 0.701041 0.272866 0.530975 0.434456
0.163320 -0.176777 0.067650 0.658803 -0.701041 0.272866 0.530975 0.367403
0.213388 0.095671 0.088388 0.855159 0.378430 0.354198 0.540764 0.418488
0.138893 -0.207867 0.000000 0.563891 -0.825831 0.000000 0.525738 0.364681
0.226532 0.048773 0.093833 0.906522 0.192785 0.375500 0.543357 0.409356
0.088388 -0.230970 0.036612 0.363109 -0.919523 0.150395 0.516585 0.358646
0.048773 0.245196 0.000000 0.206793 0.978362 0.000000 0.509038 0.448637
0.088388 0.230970 0.036612 0.363109 0.919523 0.150395 0.516585 0.445323
0.048773 -0.245196 0.000000 0.206793 -0.978362 0.000000 0.509038 0.357763
0.226532 -0.048773 0.093833 0.906522 -0.192785 0.375500 0.543357 0.390687
0.128320 0.207867 0.053152 0.520981 0.825831 0.215796 0.524215 0.440651
0.045060 -0.245196 0.018664 0.191046 -0.978362 0.079134 0.508403 0.356858
0.067650 -0.230970 0.067650 0.277902 -0.919523 0.277902 0.512830 0.357124
0.230970 0.000000 0.095671 0.923856 0.000000 0.382672 0.544235 0.399957
0.176777 0.000000 0.176777 0.707083 0.000000 0.707083 0.534846 0.397033
0.067650 0.230970 0.067650 0.277902 0.919523 0.277902 0.512830 0.444734
0.173380 -0.048773 0.173380 0.693838 -0.192785 0.693838 0.534134 0.387556
0.098212 0.207867 0.098212 0.398724 0.825831 0.398724 0.518826 0.439714
0.192045 -0.138893 0.079547 0.771569 -0.550005 0.319590 0.536573 0.374068
0.163320 -0.095671 0.163320 0.654500 -0.378430 0.654500 0.532038 0.378762
0.192045 0.138893 0.079547 0.771569 0.550005 0.319590 0.536573 0.426970
0.125000 0.176777 0.125000 0.504227 0.701041 0.504227 0.524188 0.433126
0.125000 -0.176777 0.125000 0.504227 -0.701041 0.504227 0.524188 0.364712
0.163320 0.095671 0.163320 0.654500 0.378430 0.654500 0.532038 0.416297
0.128320 -0.207867 0.053152 0.520981 -0.825831 0.215796 0.524215 0.362199
0.098212 -0.207867 0.098212 0.398724 -0.825831 0.398724 0.518826 0.360022
0.173380 0.048773 0.173380 0.693838 0.192785 0.693838 0.534134 0.406761
0.045060 0.245196 0.018664 0.191046 0.978362 0.079134 0.508403 0.448311
0.067650 -0.176777 0.163320 0.272866 -0.701041 0.658803 0.513270 0.362852
0.088388 0.095671 0.213388 0.354198 0.378430 0.855159 0.517656 0.414766
0.036612 -0.230970 0.088388 0.150395 -0.919523 0.363109 0.506994 0.356089
0.093833 0.048773 0.226532 0.375500 0.192785 0.906522 0.518834 0.404942
0.034488 0.245196 0.034487 0.146214 0.978362 0.146214 0.506466 0.448030
0.036612 0.230970 0.088388 0.150395 0.919523 0.363109 0.506994 0.444334
0.034487 -0.245196 0.034487 0.146214 -0.978362 0.146214 0.506466 0.356082
0.095671 0.000000 0.230970 0.382672 0.000000 0.923856 0.519234 0.394981
0.093833 -0.048773 0.226532 0.375500 -0.192785 0.906522 0.518834 0.385363
0.053152 0.207867 0.128320 0.215796 0.825831 0.520981 0.510297 0.439071
0.146985 -0.138893 0.146984 0.590533 -0.550005 0.590533 0.528665 0.371039
0.088388 -0.095671 0.213388 0.354198 -0.378430 0.855159 0.517656 0.376545
0.146985 0.138893 0.146984 0.590533 0.550005 0.590533 0.528665 0.425214
0.067650 0.176777 0.163320 0.272866 0.701041 0.658803 0.513270 0.432207
0.079547 -0.138893 0.192044 0.319590 -0.550005 0.771569 0.515767 0.368933
0.000000 -0.095671 0.230970 0.000000 -0.378430 0.925596 0.500000 0.375747
0.079547 0.138893 0.192044 0.319590 0.550005 0.771569 0.515767 0.423992
0.000000 0.176777 0.176777 0.000000 0.701041 0.713095 0.500000 0.431878
0.000000 -0.176777 0.176777 0.000000 -0.701041 0.713095 0.500000 0.362187
0.000000 0.095671 0.230970 0.000000 0.378430 0.925596 0.500000 0.414215
0.053152 -0.207867 0.128320 0.215796 -0.825831 0.520981 0.510297 0.358529
0.000000 0.048773 0.245196 0.000000 0.192785 0.981231 0.500000 0.404286
0.000000 -0.207867 0.138893 0.000000 -0.825831 0.563891 0.500000 0.357998
0.018665 0.245196 0.045060 0.079134 0.978362 0.191046 0.503512 0.447841
0.000000 0.230970 0.095671 0.000000 0.919523 0.393017 0.500000 0.444192
0.018665 -0.245196 0.045060 0.079134 -0.978362 0.191046 0.503512 0.355558
0.000000 -0.230970 0.095671 0.000000 -0.919523 0.393017 0.500000 0.355722
0.000000 -0.048773 0.245196 0.000000 -0.192785 0.981231 0.500000 0.384572
0.000000 0.207867 0.138893 0.000000 0.825831 0.563891 0.500000 0.438842
0.000000 0.245196 0.048773 0.000000 0.978362 0.206793 0.500000 0.447774
-0.036612 0.230970 0.088388 -0.150395 0.919523 0.363109 0.493006 0.444334
0.000000 -0.245196 0.048773 0.000000 -0.978362 0.206793 0.500000 0.355373
-0.036612 -0.230970 0.088388 -0.150395 -0.919523 0.363109 0.493006 0.356089
0.000000 0.000000 0.250000 0.000000 0.000000 1.000000 0.500000 0.394241
-0.095671 0.000000 0.230970 -0.382672 0.000000 0.923856 0.480766 0.394981
-0.093833 -0.048773 0.226532 -0.375500 -0.192785 0.906522 0.481166 0.385363
-0.053152 0.207867 0.128320 -0.215796 0.825831 0.520981 0.489703 0.439071
0.000000 -0.138893 0.207867 0.000000 -0.550005 0.835139 0.500000 0.368177
-0.079547 -0.138893 0.192044 -0.319590 -0.550005 0.771569 0.484233 0.368933
0.000000 0.138893 0.207867 0.000000 0.550005 0.835139 0.500000 0.423554
-0.067649 0.176777 0.163320 -0.272866 0.701041 0.658803 0.486730 0.432207
-0.067649 -0.176777 0.163320 -0.272866 -0.701041 0.658803 0.486730 0.362852
-0.088388 0.095671 0.213388 -0.354198 0.378430 0.855159 0.482344 0.414766
-0.093833 0.048773 0.226532 -0.375500 0.192785 0.906522 0.481166 0.404942
-0.079547 0.138893 0.192044 -0.319590 0.550005 0.771569 0.484233 0.423992
-0.146984 0.138893 0.146984 -0.590533 0.550005 0.590533 0.471335 0.425214
-0.053152 -0.207867 0.128320 -0.215796 -0.825831 0.520981 0.489703 0.358529
-0.125000 -0.176777 0.125000 -0.504227 -0.701041 0.504227 0.475812 0.364712
-0.173380 0.048773 0.173380 -0.693838 0.192785 0.693838 0.465866 0.406761
-0.067649 -0.230970 0.067650 -0.277902 -0.919523 0.277902 0.487170 0.357124
-0.018664 0.245196 0.045060 -0.079134 0.978362 0.191046 0.496488 0.447841
-0.067649 0.230970 0.067650 -0.277902 0.919523 0.277902 0.487170 0.444734
-0.018664 -0.245196 0.045060 -0.079134 -0.978362 0.191046 0.496488 0.355558
-0.173380 -0.048773 0.173380 -0.693838 -0.192785 0.693838 0.465866 0.387556
-0.098212 0.207867 0.098212 -0.398724 0.825831 0.398724 0.481174 0.439714
-0.088388 -0.095671 0.213388 -0.354198 -0.378430 0.855159 0.482344 0.376545
-0.125000 0.176777 0.125000 -0.504227 0.701041 0.504227 0.475812 0.433126
-0.163320 -0.095671 0.163320 -0.654500 -0.378430 0.654500 0.467962 0.378762
-0.226532 -0.048773 0.093833 -0.906522 -0.192785 0.375500 0.456643 0.390687
-0.163320 0.176777 0.067650 -0.658803 0.701041 0.272866 0.469025 0.434456
-0.146984 -0.138893 0.146984 -0.590533 -0.550005 0.590533 0.471335 0.371039
-0.192044 -0.138893 0.079547 -0.771569 -0.550005 0.319590 0.463427 0.374068
-0.163320 -0.176777 0.067650 -0.658803 -0.701041 0.272866 0.469025 0.367403
-0.163320 0.095671 0.163320 -0.654500 0.378430 0.654500 0.467962 0.416297
-0.213388 0.095671 0.088388 -0.855159 0.378430 0.354198 0.459236 0.418488
-0.098212 -0.207867 0.098212 -0.398724 -0.825831 0.398724 0.481174 0.360022
-0.088388 -0.230970 0.036612 -0.363109 -0.919523 0.150395 0.483415 0.358646
-0.176777 0.000000 0.176777 -0.707083 0.000000 0.707083 0.465154 0.397033
-0.230970 0.000000 0.095671 -0.923856 0.000000 0.382672 0.455765 0.399957
-0.034487 0.245196 0.034487 -0.146214 0.978362 0.146214 0.493534 0.448030
-0.088388 0.230970 0.036612 -0.363109 0.919523 0.150395 0.483415 0.445323
-0.034487 -0.245196 0.034487 -0.146214 -0.978362 0.146214 0.493534 0.356082
0.000000 0.250000 0.000000 0.000000 0.999969 0.000000 0.500000 0.449528
0.000000 -0.250000 0.000000 0.000000 -1.000000 0.000000 0.500000 0.356873
-0.045060 0.245196 0.018664 -0.191046 0.978362 0.079134 0.491597 0.448311
-0.045060 -0.245196 0.018664 -0.191046 -0.978362 0.079134 0.491597 0.356858
-0.128320 -0.207867 0.053152 -0.520981 -0.825831 0.215796 0.475785 0.362199
-0.226532 0.048773 0.093833 -0.906522 0.192785 0.375500 0.456643 0.409356
-0.128320 0.207867 0.053152 -0.520981 0.825831 0.215796 0.475785 0.440651
-0.213388 -0.095671 0.088388 -0.855159 -0.378430 0.354198 0.459236 0.381936
-0.192044 0.138893 0.079547 -0.771569 0.550005 0.319590 0.463427 0.426970
3 0 1 2
3 3 4 5
3 6 0 7
3 8 3 9
3 10 6 7
3 11 8 12
3 13 10 14
3 15 11 16
3 17 18 19
3 20 13 21
3 22 15 23
3 24 17 25
3 1 22 23
3 4 24 25
3 21 14 26
3 27 16 28
3 29 19 30
3 31 21 32
3 23 27 33
3 25 29 34
3 2 23 35
3 5 25 36
3 37 2 38
3 9 5 39
3 7 37 40
3 12 9 39
3 14 7 41
3 16 12 42
3 41 40 43
3 42 39 44
3 26 41 45
3 28 42 46
3 47 26 48
3 33 28 46
3 34 30 49
3 32 47 48
3 35 33 50
3 36 34 51
3 38 35 52
3 53 36 51
3 40 38 54
3 39 53 55
3 51 49 56
3 54 52 57
3 55 51 56
3 43 54 58
3 44 55 59
3 45 43 60
3 61 44 62
3 63 45 64
3 46 61 65
3 48 63 66
3 50 46 65
3 49 67 68
3 69 48 70
3 52 50 71
3 65 72 73
3 66 74 75
3 71 65 73
3 68 76 77
3 70 66 78
3 57 71 79
3 56 68 80
3 58 57 79
3 59 56 81
3 60 58 82
3 62 59 81
3 64 60 83
3 72 62 84
3 74 64 83
3 85 82 86
3 87 81 88
3 83 85 89
3 84 87 90
3 91 83 92
3 73 84 93
3 75 91 94
3 95 73 93
3 80 77 96
3 78 75 94
3 79 95 97
3 98 80 96
3 82 79 99
3 81 98 100
3 101 94 102
3 99 97 103
3 100 96 104
3 86 99 103
3 88 100 105
3 89 86 106
3 90 88 105
3 107 89 108
3 109 90 110
3 92 107 111
3 93 109 112
3 94 92 113
3 97 93 112
3 96 114 115
3 113 111 116
3 112 117 118
3 102 113 119
3 120 112 118
3 104 115 121
3 122 102 119
3 103 120 123
3 124 104 125
3 106 103 126
3 105 124 125
3 108 106 127
3 110 105 128
3 111 108 116
3 117 110 129
3 130 127 131
3 132 128 133
3 116 130 134
3 129 132 135
3 136 116 134
3 118 129 137
3 119 136 138
3 123 118 137
3 121 139 140
3 141 119 138
3 126 123 142
3 125 121 140
3 127 126 142
3 128 125 143
3 144 138 145
3 142 146 147
3 143 140 148
3 131 142 149
3 133 143 150
3 151 131 152
3 153 133 154
3 134 151 155
3 135 153 156
3 157 134 155
3 137 135 156
3 138 157 158
3 146 137 159
3 140 160 148
3 158 155 161
3 159 156 162
3 145 158 163
3 147 159 164
3 148 165 166
3 167 145 163
3 149 147 168
3 150 148 166
3 152 149 169
3 154 150 170
3 171 152 172
3 173 154 174
3 155 171 161
3 156 173 162
3 175 172 176
3 177 174 178
3 161 175 179
3 162 177 180
3 181 161 179
3 164 162 182
3 163 181 183
3 168 164 182
3 166 184 185
3 186 163 187
3 169 168 188
3 170 166 185
3 172 169 188
3 174 170 189
3 185 190 191
3 192 187 193
3 188 194 195
3 189 185 191
3 176 188 196
3 178 189 197
3 198 176 199
3 200 178 201
3 179 198 202
3 180 200 203
3 183 179 202
3 182 180 204
3 187 183 193
3 194 182 204
3 203 205 206
3 207 202 208
3 204 203 209
3 193 207 210
3 195 204 209
3 191 211 212
3 213 193 210
3 196 195 214
3 197 191 215
3 216 196 214
3 201 197 217
3 199 216 218
3 205 201 217
3 202 199 208
3 218 214 219
3 217 215 220
3 221 218 222
3 206 217 220
3 208 221 223
3 224 206 225
3 226 208 223
3 209 224 225
3 210 226 227
3 228 209 229
3 212 230 231
3 232 210 227
3 214 228 229
3 215 212 231
3 18 233 19
3 234 20 31
3 234 31 32
3 19 233 30
3 30 233 67
3 234 32 69
3 234 69 70
3 67 233 76
3 76 233 77
3 234 70 78
3 77 233 114
3 234 78 101
3 234 101 122
3 114 233 115
3 115 233 139
3 234 122 141
3 139 233 160
3 234 141 144
3 234 144 167
3 160 233 165
3 165 233 184
3 234 167 186
3 184 233 190
3 234 186 192
3 234 192 213
3 190 233 211
3 211 233 230
3 234 213 232
3 230 233 235
3 234 232 236
3 227 237 13
3 229 238 11
3 235 18 231
3 236 227 20
3 219 229 15
3 239 231 17
3 234 236 20
3 240 219 22
3 220 239 24
3 222 240 0
3 241 220 4
3 223 222 6
3 225 241 3
3 237 223 6
3 238 225 11
3 233 18 235
3 37 0 2
3 9 3 5
3 129 135 137
3 12 8 9
3 14 10 7
3 16 11 12
3 21 13 14
3 27 15 16
3 29 17 19
3 31 20 21
3 197 215 217
3 175 198 179
3 2 1 23
3 5 4 25
3 47 21 26
3 33 27 28
3 34 29 30
3 218 240 222
3 35 23 33
3 36 25 34
3 38 2 35
3 53 5 36
3 40 37 38
3 151 171 155
3 41 7 40
3 42 12 39
3 26 14 41
3 28 16 42
3 45 41 43
3 61 42 44
3 63 26 45
3 109 117 112
3 203 224 209
3 50 33 46
3 206 241 225
3 69 32 48
3 52 35 50
3 165 184 166
3 54 38 52
3 55 53 51
3 43 40 54
3 44 39 55
3 104 121 125
3 58 54 57
3 59 55 56
3 60 43 58
3 62 44 59
3 64 45 60
3 72 61 62
3 74 63 64
3 30 67 49
3 115 139 121
3 71 50 65
3 21 47 32
3 74 91 75
3 57 52 71
3 0 37 7
3 158 181 163
3 95 71 73
3 80 68 77
3 211 230 212
3 226 237 227
3 98 56 80
3 82 58 79
3 34 49 51
3 85 60 82
3 87 62 81
3 83 107 92
3 123 146 142
3 91 74 83
3 89 85 86
3 90 87 88
3 107 83 89
3 109 84 90
3 225 8 11
3 56 98 81
3 15 27 23
3 97 95 93
3 49 68 56
3 101 78 94
3 99 79 97
3 100 98 96
3 86 82 99
3 88 81 100
3 122 101 102
3 26 63 48
3 124 100 104
3 106 86 103
3 200 205 203
3 108 89 106
3 110 90 105
3 111 107 108
3 117 109 110
3 113 92 111
3 100 124 105
3 102 94 113
3 120 97 112
3 104 96 115
3 136 113 116
3 91 92 94
3 207 226 210
3 123 120 118
3 190 211 191
3 141 122 119
3 126 103 123
3 184 190 185
3 127 106 126
3 128 105 125
3 130 108 127
3 132 110 128
3 5 53 39
3 173 177 162
3 151 130 131
3 153 132 133
3 132 153 135
3 162 180 182
3 157 136 134
3 71 95 79
3 67 76 68
3 146 123 137
3 48 66 70
3 144 141 138
3 130 151 134
3 143 125 140
3 131 127 142
3 133 128 143
3 167 144 145
3 149 142 147
3 150 143 148
3 152 131 149
3 154 133 150
3 171 151 152
3 173 153 154
3 62 87 84
3 153 173 156
3 158 157 155
3 159 137 156
3 145 138 158
3 147 146 159
3 63 74 66
3 181 158 161
3 164 159 162
3 230 235 231
3 168 147 164
3 17 29 25
3 186 167 163
3 169 149 168
3 170 150 166
3 172 152 169
3 174 154 170
3 175 171 172
3 177 173 174
3 227 13 20
3 60 85 83
3 198 175 176
3 200 177 178
3 168 194 188
3 171 175 161
3 183 181 179
3 177 200 180
3 187 163 183
3 194 168 182
3 139 160 140
3 192 186 187
3 97 120 103
3 189 170 185
3 176 172 188
3 178 174 189
3 183 207 193
3 213 192 193
3 196 188 195
3 197 189 191
3 216 176 196
3 201 178 197
3 72 84 73
3 205 200 201
3 209 238 229
3 117 129 118
3 207 183 202
3 195 228 214
3 66 75 78
3 195 194 204
3 224 203 206
3 226 207 208
3 42 61 46
3 77 114 96
3 228 195 209
3 113 136 119
3 232 213 210
3 160 165 148
3 218 216 214
3 180 203 204
3 221 199 218
3 206 205 217
3 199 221 208
3 240 218 219
3 108 130 116
3 176 216 199
3 241 206 220
3 215 239 220
3 84 109 93
3 237 226 223
3 238 209 225
3 237 10 13
3 221 222 223
3 191 212 215
3 236 232 227
3 219 214 229
3 239 215 231
3 110 132 129
3 15 229 11
3 231 18 17
3 136 157 138
3 22 219 15
3 24 239 17
3 1 240 22
3 4 220 24
3 240 1 0
3 3 241 4
3 222 0 6
3 8 225 3
3 10 237 6
3 61 72 65
3 198 199 202
