ply
format ascii 1.0
comment Created by Blender 2.68 (sub 0) - www.blender.org, source file: ''
element vertex 501
property float x
property float y
property float z
property float nx
property float ny
property float nz
property float s
property float t
element face 350
property list uchar uint vertex_indices
end_header
0.000000 0.090849 -0.062500 0.000000 0.661733 -0.749718 0.000000 0.000000
0.000000 0.762313 -0.062500 0.000000 0.856655 -0.515854 1.000000 0.000000
0.023918 0.762313 -0.057742 0.197394 0.856655 -0.476608 1.000000 1.000000
0.023918 0.090849 -0.057742 0.286905 0.661733 -0.692648 0.000000 0.000000
0.023918 0.762313 -0.057742 0.197394 0.856655 -0.476608 1.000000 0.000000
0.044194 0.762313 -0.044194 0.364757 0.856655 -0.364757 1.000000 1.000000
0.044194 0.090849 -0.044194 0.530106 0.661733 -0.530106 0.000000 0.000000
0.044194 0.762313 -0.044194 0.364757 0.856655 -0.364757 1.000000 0.000000
0.057742 0.762313 -0.023918 0.476608 0.856655 -0.197394 1.000000 1.000000
0.057742 0.090849 -0.023918 0.692648 0.661733 -0.286905 0.000000 0.000000
0.057742 0.762313 -0.023918 0.476608 0.856655 -0.197394 1.000000 0.000000
0.062500 0.762313 0.000000 0.515854 0.856655 0.000000 1.000000 1.000000
0.062500 0.090849 0.000000 0.749718 0.661733 0.000000 0.000000 0.000000
0.062500 0.762313 0.000000 0.515854 0.856655 0.000000 1.000000 0.000000
0.057742 0.762313 0.023918 0.476608 0.856655 0.197394 1.000000 1.000000
0.057742 0.090849 0.023918 0.692648 0.661733 0.286905 0.000000 0.000000
0.057742 0.762313 0.023918 0.476608 0.856655 0.197394 1.000000 0.000000
0.044194 0.090849 0.044194 0.530106 0.661733 0.530106 1.000000 1.000000
0.044194 0.090849 0.044194 0.530106 0.661733 0.530106 0.000000 0.000000
0.044194 0.762313 0.044194 0.364757 0.856655 0.364757 1.000000 0.000000
0.023918 0.090849 0.057742 0.286905 0.661733 0.692648 1.000000 1.000000
0.023918 0.090849 0.057742 0.286905 0.661733 0.692648 0.000000 0.000000
0.023918 0.762313 0.057742 0.197394 0.856655 0.476608 1.000000 0.000000
0.000000 0.762313 0.062500 0.000000 0.856655 0.515854 1.000000 1.000000
0.000000 0.090849 0.062500 0.000000 0.661733 0.749718 0.000000 0.000000
0.000000 0.762313 0.062500 0.000000 0.856655 0.515854 1.000000 0.000000
-0.023918 0.762313 0.057742 -0.197394 0.856655 0.476608 1.000000 1.000000
-0.023918 0.090849 0.057742 -0.286905 0.661733 0.692648 0.000000 0.000000
-0.023918 0.762313 0.057742 -0.197394 0.856655 0.476608 1.000000 0.000000
-0.044194 0.762313 0.044194 -0.364757 0.856655 0.364757 1.000000 1.000000
-0.044194 0.090849 0.044194 -0.530106 0.661733 0.530106 0.000000 0.000000
-0.044194 0.762313 0.044194 -0.364757 0.856655 0.364757 1.000000 0.000000
-0.057742 0.762313 0.023918 -0.476608 0.856655 0.197394 1.000000 1.000000
-0.057742 0.090849 0.023918 -0.692648 0.661733 0.286905 0.000000 0.000000
-0.057742 0.762313 0.023918 -0.476608 0.856655 0.197394 1.000000 0.000000
-0.062500 0.090849 -0.000000 -0.749718 0.661733 0.000000 1.000000 1.000000
-0.062500 0.090849 -0.000000 -0.749718 0.661733 0.000000 0.000000 0.000000
-0.062500 0.762313 -0.000000 -0.515854 0.856655 0.000000 1.000000 0.000000
-0.057742 0.090849 -0.023918 -0.692648 0.661733 -0.286905 1.000000 1.000000
-0.057742 0.090849 -0.023918 -0.692648 0.661733 -0.286905 0.000000 0.000000
-0.057742 0.762313 -0.023918 -0.476608 0.856655 -0.197394 1.000000 0.000000
-0.044194 0.762313 -0.044194 -0.364757 0.856655 -0.364757 1.000000 1.000000
-0.023918 0.090849 -0.057742 -0.286905 0.661733 -0.692648 0.000000 0.000000
-0.023918 0.762313 -0.057742 -0.197394 0.856655 -0.476608 1.000000 0.000000
0.000000 0.090849 -0.062500 0.000000 0.661733 -0.749718 1.000000 1.000000
-0.044194 0.090849 -0.044194 -0.530106 0.661733 -0.530106 0.000000 0.000000
-0.044194 0.762313 -0.044194 -0.364757 0.856655 -0.364757 1.000000 0.000000
-0.023918 0.762313 -0.057742 -0.197394 0.856655 -0.476608 1.000000 1.000000
0.000000 -0.000900 -0.187500 0.000000 0.665700 -0.746178 0.000000 0.000000
0.000000 0.061600 -0.187500 0.000000 0.586200 -0.810144 1.000000 0.000000
0.071753 0.061600 -0.173227 0.310007 0.586200 -0.748466 1.000000 1.000000
0.071753 -0.000900 -0.173227 0.285531 0.665700 -0.689383 0.000000 0.000000
0.071753 0.061600 -0.173227 0.310007 0.586200 -0.748466 1.000000 0.000000
0.132583 0.061600 -0.132583 0.572832 0.586200 -0.572832 1.000000 1.000000
0.132583 -0.000900 -0.132583 0.527635 0.665700 -0.527635 0.000000 0.000000
0.132583 0.061600 -0.132583 0.572832 0.586200 -0.572832 1.000000 0.000000
0.173227 -0.000900 -0.071753 0.689383 0.665700 -0.285531 1.000000 1.000000
0.173227 -0.000900 -0.071753 0.689383 0.665700 -0.285531 0.000000 0.000000
0.173227 0.061600 -0.071753 0.748466 0.586200 -0.310007 1.000000 0.000000
0.187500 -0.000900 0.000000 0.746178 0.665700 0.000000 1.000000 1.000000
0.187500 -0.000900 0.000000 0.746178 0.665700 0.000000 0.000000 0.000000
0.187500 0.061600 0.000000 0.810144 0.586200 0.000000 1.000000 0.000000
0.173227 0.061600 0.071753 0.748466 0.586200 0.310007 1.000000 1.000000
0.173227 -0.000900 0.071753 0.689383 0.665700 0.285531 0.000000 0.000000
0.173227 0.061600 0.071753 0.748466 0.586200 0.310007 1.000000 0.000000
0.132583 0.061600 0.132583 0.572832 0.586200 0.572832 1.000000 1.000000
0.132583 -0.000900 0.132583 0.527635 0.665700 0.527635 0.000000 0.000000
0.132583 0.061600 0.132583 0.572832 0.586200 0.572832 1.000000 0.000000
0.071753 0.061600 0.173227 0.310007 0.586200 0.748466 1.000000 1.000000
0.071753 -0.000900 0.173227 0.285531 0.665700 0.689383 0.000000 0.000000
0.071753 0.061600 0.173227 0.310007 0.586200 0.748466 1.000000 0.000000
0.000000 -0.000900 0.187500 0.000000 0.665700 0.746178 1.000000 1.000000
0.000000 -0.000900 0.187500 0.000000 0.665700 0.746178 0.000000 0.000000
0.000000 0.061600 0.187500 0.000000 0.586200 0.810144 1.000000 0.000000
-0.071753 0.061600 0.173227 -0.310007 0.586200 0.748466 1.000000 1.000000
-0.071753 -0.000900 0.173227 -0.285531 0.665700 0.689383 0.000000 0.000000
-0.071753 0.061600 0.173227 -0.310007 0.586200 0.748466 1.000000 0.000000
-0.132583 -0.000900 0.132583 -0.527635 0.665700 0.527635 1.000000 1.000000
-0.132583 -0.000900 0.132583 -0.527635 0.665700 0.527635 0.000000 0.000000
-0.132583 0.061600 0.132583 -0.572832 0.586200 0.572832 1.000000 0.000000
-0.173227 -0.000900 0.071753 -0.689383 0.665700 0.285531 1.000000 1.000000
-0.173227 -0.000900 0.071753 -0.689383 0.665700 0.285531 0.000000 0.000000
-0.173227 0.061600 0.071753 -0.748466 0.586200 0.310007 1.000000 0.000000
-0.187500 -0.000900 -0.000000 -0.746178 0.665700 0.000000 1.000000 1.000000
-0.187500 -0.000900 -0.000000 -0.746178 0.665700 0.000000 0.000000 0.000000
-0.187500 0.061600 -0.000000 -0.810144 0.586200 0.000000 1.000000 0.000000
-0.173227 0.061600 -0.071753 -0.748466 0.586200 -0.310007 1.000000 1.000000
-0.173227 -0.000900 -0.071753 -0.689383 0.665700 -0.285531 0.000000 0.000000
-0.173227 0.061600 -0.071753 -0.748466 0.586200 -0.310007 1.000000 0.000000
-0.132582 0.061600 -0.132583 -0.572832 0.586200 -0.572832 1.000000 1.000000
-0.071753 -0.000900 -0.173227 -0.285531 0.665700 -0.689383 0.000000 0.000000
-0.071753 0.061600 -0.173227 -0.310007 0.586200 -0.748466 1.000000 0.000000
0.000000 0.061600 -0.187500 0.000000 0.586200 -0.810144 1.000000 1.000000
-0.132582 -0.000900 -0.132583 -0.527635 0.665700 -0.527635 0.000000 0.000000
-0.132582 0.061600 -0.132583 -0.572832 0.586200 -0.572832 1.000000 0.000000
-0.071753 -0.000900 -0.173227 -0.285531 0.665700 -0.689383 1.000000 1.000000
0.000000 0.061600 -0.187500 0.000000 0.586200 -0.810144 0.000000 0.000000
0.000000 0.090849 -0.062500 0.000000 0.661733 -0.749718 1.000000 0.000000
0.023918 0.090849 -0.057742 0.286905 0.661733 -0.692648 1.000000 1.000000
0.071753 0.061600 -0.173227 0.310007 0.586200 -0.748466 0.000000 0.000000
0.023918 0.090849 -0.057742 0.286905 0.661733 -0.692648 1.000000 0.000000
0.044194 0.090849 -0.044194 0.530106 0.661733 -0.530106 1.000000 1.000000
0.132583 0.061600 -0.132583 0.572832 0.586200 -0.572832 0.000000 0.000000
0.044194 0.090849 -0.044194 0.530106 0.661733 -0.530106 1.000000 0.000000
0.057742 0.090849 -0.023918 0.692648 0.661733 -0.286905 1.000000 1.000000
0.173227 0.061600 -0.071753 0.748466 0.586200 -0.310007 0.000000 0.000000
0.057742 0.090849 -0.023918 0.692648 0.661733 -0.286905 1.000000 0.000000
0.062500 0.090849 0.000000 0.749718 0.661733 0.000000 1.000000 1.000000
0.187500 0.061600 0.000000 0.810144 0.586200 0.000000 0.000000 0.000000
0.062500 0.090849 0.000000 0.749718 0.661733 0.000000 1.000000 0.000000
0.057742 0.090849 0.023918 0.692648 0.661733 0.286905 1.000000 1.000000
0.173227 0.061600 0.071753 0.748466 0.586200 0.310007 0.000000 0.000000
0.057742 0.090849 0.023918 0.692648 0.661733 0.286905 1.000000 0.000000
0.132583 0.061600 0.132583 0.572832 0.586200 0.572832 0.000000 0.000000
0.044194 0.090849 0.044194 0.530106 0.661733 0.530106 1.000000 0.000000
0.071753 0.061600 0.173227 0.310007 0.586200 0.748466 0.000000 0.000000
0.023918 0.090849 0.057742 0.286905 0.661733 0.692648 1.000000 0.000000
0.000000 0.090849 0.062500 0.000000 0.661733 0.749718 1.000000 1.000000
0.000000 0.061600 0.187500 0.000000 0.586200 0.810144 0.000000 0.000000
0.000000 0.090849 0.062500 0.000000 0.661733 0.749718 1.000000 0.000000
-0.071753 0.061600 0.173227 -0.310007 0.586200 0.748466 0.000000 0.000000
-0.023918 0.090849 0.057742 -0.286905 0.661733 0.692648 1.000000 0.000000
-0.044194 0.090849 0.044194 -0.530106 0.661733 0.530106 1.000000 1.000000
-0.132583 0.061600 0.132583 -0.572832 0.586200 0.572832 0.000000 0.000000
-0.044194 0.090849 0.044194 -0.530106 0.661733 0.530106 1.000000 0.000000
-0.057742 0.090849 0.023918 -0.692648 0.661733 0.286905 1.000000 1.000000
-0.173227 0.061600 0.071753 -0.748466 0.586200 0.310007 0.000000 0.000000
-0.057742 0.090849 0.023918 -0.692648 0.661733 0.286905 1.000000 0.000000
-0.187500 0.061600 -0.000000 -0.810144 0.586200 0.000000 1.000000 1.000000
-0.187500 0.061600 -0.000000 -0.810144 0.586200 0.000000 0.000000 0.000000
-0.062500 0.090849 -0.000000 -0.749718 0.661733 0.000000 1.000000 0.000000
-0.173227 0.061600 -0.071753 -0.748466 0.586200 -0.310007 0.000000 0.000000
-0.057742 0.090849 -0.023918 -0.692648 0.661733 -0.286905 1.000000 0.000000
-0.044194 0.090849 -0.044194 -0.530106 0.661733 -0.530106 1.000000 1.000000
-0.071753 0.061600 -0.173227 -0.310007 0.586200 -0.748466 0.000000 0.000000
-0.023918 0.090849 -0.057742 -0.286905 0.661733 -0.692648 1.000000 0.000000
-0.132582 0.061600 -0.132583 -0.572832 0.586200 -0.572832 0.000000 0.000000
-0.044194 0.090849 -0.044194 -0.530106 0.661733 -0.530106 1.000000 0.000000
-0.023918 0.090849 -0.057742 -0.286905 0.661733 -0.692648 1.000000 1.000000
0.023918 0.762313 -0.057742 0.197394 0.856655 -0.476608 0.000000 0.000000
0.000000 0.712313 0.000000 0.000000 1.000000 0.000000 1.000000 1.000000
0.000000 0.762313 0.062500 0.000000 0.856655 0.515854 0.000000 0.000000
0.044194 0.762313 -0.044194 0.364757 0.856655 -0.364757 0.000000 0.000000
-0.023918 0.762313 -0.057742 -0.197394 0.856655 -0.476608 0.000000 0.000000
0.057742 0.762313 -0.023918 0.476608 0.856655 -0.197394 0.000000 0.000000
-0.044194 0.762313 -0.044194 -0.364757 0.856655 -0.364757 0.000000 0.000000
0.062500 0.762313 0.000000 0.515854 0.856655 0.000000 0.000000 0.000000
0.000000 0.712313 0.000000 0.000000 1.000000 0.000000 0.000000 0.000000
0.000000 0.712313 0.000000 0.000000 1.000000 0.000000 1.000000 0.000000
0.057742 0.762313 0.023918 0.476608 0.856655 0.197394 0.000000 0.000000
0.044194 0.762313 0.044194 0.364757 0.856655 0.364757 1.000000 1.000000
0.044194 0.762313 0.044194 0.364757 0.856655 0.364757 0.000000 0.000000
0.023918 0.762313 0.057742 0.197394 0.856655 0.476608 1.000000 1.000000
0.000000 0.762313 -0.062500 0.000000 0.856655 -0.515854 0.000000 0.000000
-0.044194 0.762313 0.044194 -0.364757 0.856655 0.364757 0.000000 0.000000
-0.023918 0.762313 0.057742 -0.197394 0.856655 0.476608 0.000000 0.000000
-0.057742 0.762313 -0.023918 -0.476608 0.856655 -0.197394 0.000000 0.000000
-0.118667 0.759151 -0.000000 -0.718833 -0.695151 0.000000 0.000000 0.000000
-0.155046 0.813595 -0.000000 -0.927274 -0.374340 0.000000 1.000000 0.000000
-0.143244 0.813595 -0.059333 -0.856685 -0.374340 -0.354839 1.000000 1.000000
-0.118667 0.996484 -0.000000 -0.718833 0.695151 0.000000 0.000000 0.000000
-0.064222 1.032863 -0.000000 -0.403088 0.915159 0.000000 1.000000 0.000000
-0.109634 0.996484 -0.045412 -0.664113 0.695151 -0.275094 1.000000 1.000000
-0.155046 0.813595 -0.000000 -0.927274 -0.374340 0.000000 0.000000 0.000000
-0.167821 0.877817 -0.000000 -1.000000 0.000000 0.000000 1.000000 0.000000
-0.155046 0.877817 -0.064222 -0.923856 0.000000 -0.382672 1.000000 1.000000
-0.167821 0.877817 -0.000000 -1.000000 0.000000 0.000000 0.000000 0.000000
-0.155046 0.942039 -0.000000 -0.927274 0.374340 0.000000 1.000000 0.000000
-0.143244 0.942039 -0.059333 -0.856685 0.374340 -0.354839 1.000000 1.000000
-0.064222 0.722772 -0.000000 -0.403088 -0.915159 0.000000 0.000000 0.000000
-0.118667 0.759151 -0.000000 -0.718833 -0.695151 0.000000 1.000000 0.000000
-0.109634 0.759151 -0.045412 -0.664113 -0.695151 -0.275094 1.000000 1.000000
-0.155046 0.942039 -0.000000 -0.927274 0.374340 0.000000 0.000000 0.000000
-0.118667 0.996484 -0.000000 -0.718833 0.695151 0.000000 1.000000 0.000000
-0.155046 0.877817 -0.064222 -0.923856 0.000000 -0.382672 0.000000 0.000000
-0.143244 0.942039 -0.059333 -0.856685 0.374340 -0.354839 1.000000 0.000000
-0.118667 0.877817 -0.118667 -0.707083 0.000000 -0.707083 1.000000 1.000000
-0.059334 0.722772 -0.024577 -0.372387 -0.915159 -0.154241 0.000000 0.000000
-0.109634 0.759151 -0.045412 -0.664113 -0.695151 -0.275094 1.000000 0.000000
-0.083910 0.759151 -0.083910 -0.508286 -0.695151 -0.508286 1.000000 1.000000
-0.143244 0.942039 -0.059333 -0.856685 0.374340 -0.354839 0.000000 0.000000
-0.109634 0.996484 -0.045412 -0.664113 0.695151 -0.275094 1.000000 0.000000
-0.083910 0.996484 -0.083910 -0.508286 0.695151 -0.508286 1.000000 1.000000
-0.109634 0.759151 -0.045412 -0.664113 -0.695151 -0.275094 0.000000 0.000000
-0.143244 0.813595 -0.059333 -0.856685 -0.374340 -0.354839 1.000000 0.000000
-0.109634 0.813595 -0.109634 -0.655660 -0.374340 -0.655660 1.000000 1.000000
-0.109634 0.996484 -0.045412 -0.664113 0.695151 -0.275094 0.000000 0.000000
-0.059334 1.032863 -0.024577 -0.372387 0.915159 -0.154241 1.000000 0.000000
-0.143244 0.813595 -0.059333 -0.856685 -0.374340 -0.354839 0.000000 0.000000
-0.155046 0.877817 -0.064222 -0.923856 0.000000 -0.382672 1.000000 0.000000
-0.118667 0.877817 -0.118667 -0.707083 0.000000 -0.707083 0.000000 0.000000
-0.109634 0.942039 -0.109634 -0.655660 0.374340 -0.655660 1.000000 0.000000
-0.059334 0.942039 -0.143244 -0.354839 0.374340 -0.856685 1.000000 1.000000
-0.045412 0.722772 -0.045412 -0.285012 -0.915159 -0.285012 0.000000 0.000000
-0.083910 0.759151 -0.083910 -0.508286 -0.695151 -0.508286 1.000000 0.000000
-0.045412 0.759151 -0.109634 -0.275094 -0.695151 -0.664113 1.000000 1.000000
-0.109634 0.942039 -0.109634 -0.655660 0.374340 -0.655660 0.000000 0.000000
-0.083910 0.996484 -0.083910 -0.508286 0.695151 -0.508286 1.000000 0.000000
-0.045412 0.996484 -0.109634 -0.275094 0.695151 -0.664113 1.000000 1.000000
-0.083910 0.759151 -0.083910 -0.508286 -0.695151 -0.508286 0.000000 0.000000
-0.109634 0.813595 -0.109634 -0.655660 -0.374340 -0.655660 1.000000 0.000000
-0.059334 0.813595 -0.143244 -0.354839 -0.374340 -0.856685 1.000000 1.000000
-0.083910 0.996484 -0.083910 -0.508286 0.695151 -0.508286 0.000000 0.000000
-0.045412 1.032863 -0.045412 -0.285012 0.915159 -0.285012 1.000000 0.000000
-0.024577 1.032863 -0.059333 -0.154241 0.915128 -0.372387 1.000000 1.000000
-0.109634 0.813595 -0.109634 -0.655660 -0.374340 -0.655660 0.000000 0.000000
-0.118667 0.877817 -0.118667 -0.707083 0.000000 -0.707083 1.000000 0.000000
-0.064222 0.877817 -0.155046 -0.382672 0.000000 -0.923856 1.000000 1.000000
-0.064222 0.877817 -0.155046 -0.382672 0.000000 -0.923856 0.000000 0.000000
-0.059334 0.942039 -0.143244 -0.354839 0.374340 -0.856685 1.000000 0.000000
-0.000000 0.942039 -0.155046 0.000000 0.374340 -0.927274 1.000000 1.000000
-0.024577 0.722772 -0.059333 -0.154241 -0.915159 -0.372387 0.000000 0.000000
-0.045412 0.759151 -0.109634 -0.275094 -0.695151 -0.664113 1.000000 0.000000
-0.000000 0.759151 -0.118667 0.000000 -0.695151 -0.718833 1.000000 1.000000
-0.059334 0.942039 -0.143244 -0.354839 0.374340 -0.856685 0.000000 0.000000
-0.045412 0.996484 -0.109634 -0.275094 0.695151 -0.664113 1.000000 0.000000
-0.045412 0.759151 -0.109634 -0.275094 -0.695151 -0.664113 0.000000 0.000000
-0.059334 0.813595 -0.143244 -0.354839 -0.374340 -0.856685 1.000000 0.000000
-0.045412 0.996484 -0.109634 -0.275094 0.695151 -0.664113 0.000000 0.000000
-0.024577 1.032863 -0.059333 -0.154241 0.915128 -0.372387 1.000000 0.000000
-0.000000 1.032863 -0.064222 0.000000 0.915159 -0.403088 1.000000 1.000000
-0.059334 0.813595 -0.143244 -0.354839 -0.374340 -0.856685 0.000000 0.000000
-0.064222 0.877817 -0.155046 -0.382672 0.000000 -0.923856 1.000000 0.000000
-0.000000 0.877817 -0.167820 0.000000 0.000000 -1.000000 1.000000 1.000000
-0.000000 0.877817 -0.167820 0.000000 0.000000 -1.000000 0.000000 0.000000
-0.000000 0.942039 -0.155046 0.000000 0.374340 -0.927274 1.000000 0.000000
0.059333 0.942039 -0.143244 0.354839 0.374340 -0.856685 1.000000 1.000000
-0.000000 0.722772 -0.064222 0.000000 -0.915159 -0.403088 0.000000 0.000000
-0.000000 0.759151 -0.118667 0.000000 -0.695151 -0.718833 1.000000 0.000000
0.024577 0.722772 -0.059333 0.154241 -0.915159 -0.372387 1.000000 1.000000
-0.000000 0.942039 -0.155046 0.000000 0.374340 -0.927274 0.000000 0.000000
-0.000000 0.996484 -0.118667 0.000000 0.695151 -0.718833 1.000000 0.000000
0.045412 0.996484 -0.109634 0.275094 0.695151 -0.664113 1.000000 1.000000
-0.000000 0.759151 -0.118667 0.000000 -0.695151 -0.718833 0.000000 0.000000
-0.000000 0.813595 -0.155046 0.000000 -0.374340 -0.927274 1.000000 0.000000
0.059333 0.813595 -0.143244 0.354839 -0.374340 -0.856685 1.000000 1.000000
-0.000000 0.996484 -0.118667 0.000000 0.695151 -0.718833 0.000000 0.000000
-0.000000 1.032863 -0.064222 0.000000 0.915159 -0.403088 1.000000 0.000000
-0.000000 0.813595 -0.155046 0.000000 -0.374340 -0.927274 0.000000 0.000000
-0.000000 0.877817 -0.167820 0.000000 0.000000 -1.000000 1.000000 0.000000
0.064222 0.877817 -0.155046 0.382672 0.000000 -0.923856 1.000000 1.000000
0.064222 0.877817 -0.155046 0.382672 0.000000 -0.923856 0.000000 0.000000
0.059333 0.942039 -0.143244 0.354839 0.374340 -0.856685 1.000000 0.000000
0.109634 0.942039 -0.109634 0.655660 0.374340 -0.655660 1.000000 1.000000
0.024577 0.722772 -0.059333 0.154241 -0.915159 -0.372387 0.000000 0.000000
0.045412 0.759151 -0.109634 0.275094 -0.695151 -0.664113 1.000000 0.000000
0.083910 0.759151 -0.083910 0.508286 -0.695151 -0.508286 1.000000 1.000000
0.059333 0.942039 -0.143244 0.354839 0.374340 -0.856685 0.000000 0.000000
0.045412 0.996484 -0.109634 0.275094 0.695151 -0.664113 1.000000 0.000000
0.045412 0.759151 -0.109634 0.275094 -0.695151 -0.664113 0.000000 0.000000
0.059333 0.813595 -0.143244 0.354839 -0.374340 -0.856685 1.000000 0.000000
0.109634 0.813595 -0.109634 0.655660 -0.374340 -0.655660 1.000000 1.000000
0.045412 0.996484 -0.109634 0.275094 0.695151 -0.664113 0.000000 0.000000
0.024577 1.032863 -0.059333 0.154241 0.915159 -0.372387 1.000000 0.000000
0.045412 1.032863 -0.045412 0.285012 0.915159 -0.285012 1.000000 1.000000
0.059333 0.813595 -0.143244 0.354839 -0.374340 -0.856685 0.000000 0.000000
0.064222 0.877817 -0.155046 0.382672 0.000000 -0.923856 1.000000 0.000000
0.118667 0.877817 -0.118667 0.707083 0.000000 -0.707083 1.000000 1.000000
0.118667 0.877817 -0.118667 0.707083 0.000000 -0.707083 0.000000 0.000000
0.109634 0.942039 -0.109634 0.655660 0.374340 -0.655660 1.000000 0.000000
0.143243 0.942039 -0.059333 0.856685 0.374340 -0.354839 1.000000 1.000000
0.045412 0.722772 -0.045412 0.285012 -0.915159 -0.285012 0.000000 0.000000
0.083910 0.759151 -0.083910 0.508286 -0.695151 -0.508286 1.000000 0.000000
0.109634 0.759151 -0.045412 0.664113 -0.695151 -0.275094 1.000000 1.000000
0.109634 0.942039 -0.109634 0.655660 0.374340 -0.655660 0.000000 0.000000
0.083910 0.996484 -0.083910 0.508286 0.695151 -0.508286 1.000000 0.000000
0.109634 0.996484 -0.045412 0.664113 0.695151 -0.275094 1.000000 1.000000
0.083910 0.759151 -0.083910 0.508286 -0.695151 -0.508286 0.000000 0.000000
0.109634 0.813595 -0.109634 0.655660 -0.374340 -0.655660 1.000000 0.000000
0.143243 0.813595 -0.059333 0.856685 -0.374340 -0.354839 1.000000 1.000000
0.083910 0.996484 -0.083910 0.508286 0.695151 -0.508286 0.000000 0.000000
0.045412 1.032863 -0.045412 0.285012 0.915159 -0.285012 1.000000 0.000000
0.059333 1.032863 -0.024577 0.372387 0.915159 -0.154241 1.000000 1.000000
0.109634 0.813595 -0.109634 0.655660 -0.374340 -0.655660 0.000000 0.000000
0.118667 0.877817 -0.118667 0.707083 0.000000 -0.707083 1.000000 0.000000
0.155046 0.877817 -0.064222 0.923856 0.000000 -0.382672 1.000000 1.000000
0.155046 0.877817 -0.064222 0.923856 0.000000 -0.382672 0.000000 0.000000
0.143243 0.942039 -0.059333 0.856685 0.374340 -0.354839 1.000000 0.000000
0.155046 0.942039 -0.000000 0.927274 0.374340 0.000000 1.000000 1.000000
0.059333 0.722772 -0.024577 0.372387 -0.915159 -0.154241 0.000000 0.000000
0.109634 0.759151 -0.045412 0.664113 -0.695151 -0.275094 1.000000 0.000000
0.118667 0.759151 -0.000000 0.718833 -0.695151 0.000000 1.000000 1.000000
0.143243 0.942039 -0.059333 0.856685 0.374340 -0.354839 0.000000 0.000000
0.109634 0.996484 -0.045412 0.664113 0.695151 -0.275094 1.000000 0.000000
0.118667 0.996484 -0.000000 0.718833 0.695151 0.000000 1.000000 1.000000
0.109634 0.759151 -0.045412 0.664113 -0.695151 -0.275094 0.000000 0.000000
0.143243 0.813595 -0.059333 0.856685 -0.374340 -0.354839 1.000000 0.000000
0.155046 0.813595 -0.000000 0.927274 -0.374340 0.000000 1.000000 1.000000
0.109634 0.996484 -0.045412 0.664113 0.695151 -0.275094 0.000000 0.000000
0.059333 1.032863 -0.024577 0.372387 0.915159 -0.154241 1.000000 0.000000
0.143243 0.813595 -0.059333 0.856685 -0.374340 -0.354839 0.000000 0.000000
0.155046 0.877817 -0.064222 0.923856 0.000000 -0.382672 1.000000 0.000000
0.167820 0.877817 -0.000000 1.000000 0.000000 0.000000 1.000000 1.000000
0.167820 0.877817 -0.000000 1.000000 0.000000 0.000000 0.000000 0.000000
0.155046 0.942039 -0.000000 0.927274 0.374340 0.000000 1.000000 0.000000
0.155046 0.877817 0.064222 0.923856 0.000000 0.382672 1.000000 1.000000
0.064222 0.722772 -0.000000 0.403088 -0.915159 0.000000 0.000000 0.000000
0.118667 0.759151 -0.000000 0.718833 -0.695151 0.000000 1.000000 0.000000
0.059333 0.722772 0.024577 0.372387 -0.915159 0.154241 1.000000 1.000000
0.155046 0.942039 -0.000000 0.927274 0.374340 0.000000 0.000000 0.000000
0.118667 0.996484 -0.000000 0.718833 0.695151 0.000000 1.000000 0.000000
0.109634 0.996484 0.045412 0.664113 0.695151 0.275094 1.000000 1.000000
0.118667 0.759151 -0.000000 0.718833 -0.695151 0.000000 0.000000 0.000000
0.155046 0.813595 -0.000000 0.927274 -0.374340 0.000000 1.000000 0.000000
0.109634 0.759151 0.045412 0.664113 -0.695151 0.275094 1.000000 1.000000
0.118667 0.996484 -0.000000 0.718833 0.695151 0.000000 0.000000 0.000000
0.064222 1.032863 -0.000000 0.403088 0.915159 0.000000 1.000000 0.000000
0.059333 1.032863 0.024577 0.372387 0.915159 0.154241 1.000000 1.000000
0.155046 0.813595 -0.000000 0.927274 -0.374340 0.000000 0.000000 0.000000
0.167820 0.877817 -0.000000 1.000000 0.000000 0.000000 1.000000 0.000000
0.155046 0.877817 0.064222 0.923856 0.000000 0.382672 0.000000 0.000000
0.143243 0.942039 0.059333 0.856685 0.374340 0.354839 1.000000 0.000000
0.118667 0.877817 0.118667 0.707083 0.000000 0.707083 1.000000 1.000000
0.059333 0.722772 0.024577 0.372387 -0.915159 0.154241 0.000000 0.000000
0.109634 0.759151 0.045412 0.664113 -0.695151 0.275094 1.000000 0.000000
0.083910 0.759151 0.083910 0.508286 -0.695151 0.508286 1.000000 1.000000
0.143243 0.942039 0.059333 0.856685 0.374340 0.354839 0.000000 0.000000
0.109634 0.996484 0.045412 0.664113 0.695151 0.275094 1.000000 0.000000
0.083910 0.996484 0.083910 0.508286 0.695151 0.508286 1.000000 1.000000
0.109634 0.759151 0.045412 0.664113 -0.695151 0.275094 0.000000 0.000000
0.143243 0.813595 0.059333 0.856685 -0.374340 0.354839 1.000000 0.000000
0.109634 0.813595 0.109634 0.655660 -0.374340 0.655660 1.000000 1.000000
0.109634 0.996484 0.045412 0.664113 0.695151 0.275094 0.000000 0.000000
0.059333 1.032863 0.024577 0.372387 0.915159 0.154241 1.000000 0.000000
0.045412 1.032863 0.045412 0.285012 0.915159 0.285012 1.000000 1.000000
0.143243 0.813595 0.059333 0.856685 -0.374340 0.354839 0.000000 0.000000
0.155046 0.877817 0.064222 0.923856 0.000000 0.382672 1.000000 0.000000
0.118667 0.877817 0.118667 0.707083 0.000000 0.707083 0.000000 0.000000
0.109634 0.942039 0.109634 0.655660 0.374340 0.655660 1.000000 0.000000
0.064222 0.877817 0.155046 0.382672 0.000000 0.923856 1.000000 1.000000
0.045412 0.722772 0.045412 0.285012 -0.915159 0.285012 0.000000 0.000000
0.083910 0.759151 0.083910 0.508286 -0.695151 0.508286 1.000000 0.000000
0.045412 0.759151 0.109634 0.275094 -0.695151 0.664113 1.000000 1.000000
0.109634 0.942039 0.109634 0.655660 0.374340 0.655660 0.000000 0.000000
0.083910 0.996484 0.083910 0.508286 0.695151 0.508286 1.000000 0.000000
0.045412 0.996484 0.109634 0.275094 0.695151 0.664113 1.000000 1.000000
0.083910 0.759151 0.083910 0.508286 -0.695151 0.508286 0.000000 0.000000
0.109634 0.813595 0.109634 0.655660 -0.374340 0.655660 1.000000 0.000000
0.059333 0.813595 0.143244 0.354839 -0.374340 0.856685 1.000000 1.000000
0.083910 0.996484 0.083910 0.508286 0.695151 0.508286 0.000000 0.000000
0.045412 1.032863 0.045412 0.285012 0.915159 0.285012 1.000000 0.000000
0.024577 1.032863 0.059333 0.154241 0.915159 0.372387 1.000000 1.000000
0.109634 0.813595 0.109634 0.655660 -0.374340 0.655660 0.000000 0.000000
0.118667 0.877817 0.118667 0.707083 0.000000 0.707083 1.000000 0.000000
0.064222 0.877817 0.155046 0.382672 0.000000 0.923856 0.000000 0.000000
0.059333 0.942039 0.143244 0.354839 0.374340 0.856685 1.000000 0.000000
-0.000000 0.942039 0.155046 0.000000 0.374340 0.927274 1.000000 1.000000
0.024577 0.722772 0.059333 0.154241 -0.915159 0.372387 0.000000 0.000000
0.045412 0.759151 0.109634 0.275094 -0.695151 0.664113 1.000000 0.000000
-0.000000 0.722772 0.064222 0.000000 -0.915159 0.403088 1.000000 1.000000
0.059333 0.942039 0.143244 0.354839 0.374340 0.856685 0.000000 0.000000
0.045412 0.996484 0.109634 0.275094 0.695151 0.664113 1.000000 0.000000
-0.000000 0.996484 0.118667 0.000000 0.695151 0.718833 1.000000 1.000000
0.045412 0.759151 0.109634 0.275094 -0.695151 0.664113 0.000000 0.000000
0.059333 0.813595 0.143244 0.354839 -0.374340 0.856685 1.000000 0.000000
-0.000000 0.759151 0.118667 0.000000 -0.695151 0.718833 1.000000 1.000000
0.045412 0.996484 0.109634 0.275094 0.695151 0.664113 0.000000 0.000000
0.024577 1.032863 0.059333 0.154241 0.915159 0.372387 1.000000 0.000000
0.059333 0.813595 0.143244 0.354839 -0.374340 0.856685 0.000000 0.000000
0.064222 0.877817 0.155046 0.382672 0.000000 0.923856 1.000000 0.000000
-0.000000 0.877817 0.167820 0.000000 0.000000 1.000000 1.000000 1.000000
-0.000000 0.877817 0.167820 0.000000 0.000000 1.000000 0.000000 0.000000
-0.000000 0.942039 0.155046 0.000000 0.374340 0.927274 1.000000 0.000000
-0.059334 0.942039 0.143244 -0.354839 0.374340 0.856685 1.000000 1.000000
-0.000000 0.722772 0.064222 0.000000 -0.915159 0.403088 0.000000 0.000000
-0.000000 0.759151 0.118667 0.000000 -0.695151 0.718833 1.000000 0.000000
-0.045412 0.759151 0.109634 -0.275094 -0.695151 0.664113 1.000000 1.000000
-0.000000 0.942039 0.155046 0.000000 0.374340 0.927274 0.000000 0.000000
-0.000000 0.996484 0.118667 0.000000 0.695151 0.718833 1.000000 0.000000
-0.045412 0.996484 0.109634 -0.275094 0.695151 0.664113 1.000000 1.000000
-0.000000 0.759151 0.118667 0.000000 -0.695151 0.718833 0.000000 0.000000
-0.000000 0.813595 0.155046 0.000000 -0.374340 0.927274 1.000000 0.000000
-0.000000 0.996484 0.118667 0.000000 0.695151 0.718833 0.000000 0.000000
-0.000000 1.032863 0.064222 0.000000 0.915159 0.403088 1.000000 0.000000
-0.024577 1.032863 0.059333 -0.154241 0.915159 0.372387 1.000000 1.000000
-0.000000 0.813595 0.155046 0.000000 -0.374340 0.927274 0.000000 0.000000
-0.000000 0.877817 0.167820 0.000000 0.000000 1.000000 1.000000 0.000000
-0.064222 0.877817 0.155046 -0.382672 0.000000 0.923856 1.000000 1.000000
-0.064222 0.877817 0.155046 -0.382672 0.000000 0.923856 0.000000 0.000000
-0.059334 0.942039 0.143244 -0.354839 0.374340 0.856685 1.000000 0.000000
-0.109634 0.942039 0.109634 -0.655660 0.374340 0.655660 1.000000 1.000000
-0.024577 0.722772 0.059333 -0.154241 -0.915159 0.372387 0.000000 0.000000
-0.045412 0.759151 0.109634 -0.275094 -0.695151 0.664113 1.000000 0.000000
-0.083910 0.759151 0.083910 -0.508286 -0.695151 0.508286 1.000000 1.000000
-0.059334 0.942039 0.143244 -0.354839 0.374340 0.856685 0.000000 0.000000
-0.045412 0.996484 0.109634 -0.275094 0.695151 0.664113 1.000000 0.000000
-0.083910 0.996484 0.083910 -0.508286 0.695151 0.508286 1.000000 1.000000
-0.045412 0.759151 0.109634 -0.275094 -0.695151 0.664113 0.000000 0.000000
-0.059334 0.813595 0.143244 -0.354839 -0.374340 0.856685 1.000000 0.000000
-0.045412 0.996484 0.109634 -0.275094 0.695151 0.664113 0.000000 0.000000
-0.024577 1.032863 0.059333 -0.154241 0.915159 0.372387 1.000000 0.000000
-0.045412 1.032863 0.045412 -0.285012 0.915159 0.285012 1.000000 1.000000
-0.059334 0.813595 0.143244 -0.354839 -0.374340 0.856685 0.000000 0.000000
-0.064222 0.877817 0.155046 -0.382672 0.000000 0.923856 1.000000 0.000000
-0.118667 0.877817 0.118667 -0.707083 0.000000 0.707083 1.000000 1.000000
-0.118667 0.877817 0.118667 -0.707083 0.000000 0.707083 0.000000 0.000000
-0.109634 0.942039 0.109634 -0.655660 0.374340 0.655660 1.000000 0.000000
-0.155046 0.877817 0.064222 -0.923856 0.000000 0.382672 1.000000 1.000000
-0.045412 0.722772 0.045412 -0.285012 -0.915159 0.285012 0.000000 0.000000
-0.083910 0.759151 0.083910 -0.508286 -0.695151 0.508286 1.000000 0.000000
-0.059334 0.722772 0.024577 -0.372387 -0.915159 0.154241 1.000000 1.000000
-0.109634 0.942039 0.109634 -0.655660 0.374340 0.655660 0.000000 0.000000
-0.083910 0.996484 0.083910 -0.508286 0.695151 0.508286 1.000000 0.000000
-0.109634 0.996484 0.045412 -0.664113 0.695151 0.275094 1.000000 1.000000
-0.083910 0.759151 0.083910 -0.508286 -0.695151 0.508286 0.000000 0.000000
-0.109634 0.813595 0.109634 -0.655660 -0.374340 0.655660 1.000000 0.000000
-0.109634 0.759151 0.045412 -0.664113 -0.695151 0.275094 1.000000 1.000000
-0.083910 0.996484 0.083910 -0.508286 0.695151 0.508286 0.000000 0.000000
-0.045412 1.032863 0.045412 -0.285012 0.915159 0.285012 1.000000 0.000000
-0.059334 1.032863 0.024577 -0.372387 0.915159 0.154241 1.000000 1.000000
-0.109634 0.813595 0.109634 -0.655660 -0.374340 0.655660 0.000000 0.000000
-0.118667 0.877817 0.118667 -0.707083 0.000000 0.707083 1.000000 0.000000
-0.000000 0.709997 -0.000000 0.000000 -1.000000 0.000000 0.000000 0.000000
-0.064222 0.722772 -0.000000 -0.403088 -0.915159 0.000000 1.000000 0.000000
-0.059334 0.722772 -0.024577 -0.372387 -0.915159 -0.154241 1.000000 1.000000
-0.064222 1.032863 -0.000000 -0.403088 0.915159 0.000000 0.000000 0.000000
-0.000000 1.045638 -0.000000 0.000000 1.000000 0.000000 1.000000 0.000000
-0.059334 1.032863 -0.024577 -0.372387 0.915159 -0.154241 1.000000 1.000000
-0.059334 0.722772 -0.024577 -0.372387 -0.915159 -0.154241 1.000000 0.000000
-0.045412 0.722772 -0.045412 -0.285012 -0.915159 -0.285012 1.000000 1.000000
-0.059334 1.032863 -0.024577 -0.372387 0.915159 -0.154241 0.000000 0.000000
-0.045412 1.032863 -0.045412 -0.285012 0.915159 -0.285012 1.000000 1.000000
-0.045412 0.722772 -0.045412 -0.285012 -0.915159 -0.285012 1.000000 0.000000
-0.024577 0.722772 -0.059333 -0.154241 -0.915159 -0.372387 1.000000 1.000000
-0.045412 1.032863 -0.045412 -0.285012 0.915159 -0.285012 0.000000 0.000000
-0.024577 0.722772 -0.059333 -0.154241 -0.915159 -0.372387 1.000000 0.000000
-0.000000 0.722772 -0.064222 0.000000 -0.915159 -0.403088 1.000000 1.000000
-0.024577 1.032863 -0.059333 -0.154241 0.915128 -0.372387 0.000000 0.000000
-0.000000 0.722772 -0.064222 0.000000 -0.915159 -0.403088 1.000000 0.000000
-0.000000 1.032863 -0.064222 0.000000 0.915159 -0.403088 0.000000 0.000000
0.024577 1.032863 -0.059333 0.154241 0.915159 -0.372387 1.000000 1.000000
0.024577 0.722772 -0.059333 0.154241 -0.915159 -0.372387 1.000000 0.000000
0.045412 0.722772 -0.045412 0.285012 -0.915159 -0.285012 1.000000 1.000000
0.024577 1.032863 -0.059333 0.154241 0.915159 -0.372387 0.000000 0.000000
0.045412 0.722772 -0.045412 0.285012 -0.915159 -0.285012 1.000000 0.000000
0.059333 0.722772 -0.024577 0.372387 -0.915159 -0.154241 1.000000 1.000000
0.045412 1.032863 -0.045412 0.285012 0.915159 -0.285012 0.000000 0.000000
0.059333 0.722772 -0.024577 0.372387 -0.915159 -0.154241 1.000000 0.000000
0.064222 0.722772 -0.000000 0.403088 -0.915159 0.000000 1.000000 1.000000
0.059333 1.032863 -0.024577 0.372387 0.915159 -0.154241 0.000000 0.000000
0.064222 1.032863 -0.000000 0.403088 0.915159 0.000000 1.000000 1.000000
0.064222 0.722772 -0.000000 0.403088 -0.915159 0.000000 1.000000 0.000000
0.064222 1.032863 -0.000000 0.403088 0.915159 0.000000 0.000000 0.000000
0.059333 0.722772 0.024577 0.372387 -0.915159 0.154241 1.000000 0.000000
0.045412 0.722772 0.045412 0.285012 -0.915159 0.285012 1.000000 1.000000
0.059333 1.032863 0.024577 0.372387 0.915159 0.154241 0.000000 0.000000
0.045412 0.722772 0.045412 0.285012 -0.915159 0.285012 1.000000 0.000000
0.024577 0.722772 0.059333 0.154241 -0.915159 0.372387 1.000000 1.000000
0.045412 1.032863 0.045412 0.285012 0.915159 0.285012 0.000000 0.000000
0.024577 0.722772 0.059333 0.154241 -0.915159 0.372387 1.000000 0.000000
0.024577 1.032863 0.059333 0.154241 0.915159 0.372387 0.000000 0.000000
-0.000000 1.032863 0.064222 0.000000 0.915159 0.403088 1.000000 1.000000
-0.000000 0.722772 0.064222 0.000000 -0.915159 0.403088 1.000000 0.000000
-0.024577 0.722772 0.059333 -0.154241 -0.915159 0.372387 1.000000 1.000000
-0.000000 1.032863 0.064222 0.000000 0.915159 0.403088 0.000000 0.000000
-0.024577 0.722772 0.059333 -0.154241 -0.915159 0.372387 1.000000 0.000000
-0.045412 0.722772 0.045412 -0.285012 -0.915159 0.285012 1.000000 1.000000
-0.024577 1.032863 0.059333 -0.154241 0.915159 0.372387 0.000000 0.000000
-0.045412 0.722772 0.045412 -0.285012 -0.915159 0.285012 1.000000 0.000000
-0.045412 1.032863 0.045412 -0.285012 0.915159 0.285012 0.000000 0.000000
-0.059334 0.722772 0.024577 -0.372387 -0.915159 0.154241 1.000000 0.000000
-0.064222 0.722772 -0.000000 -0.403088 -0.915159 0.000000 1.000000 1.000000
-0.059334 1.032863 0.024577 -0.372387 0.915159 0.154241 0.000000 0.000000
-0.064222 1.032863 -0.000000 -0.403088 0.915159 0.000000 1.000000 1.000000
-0.155046 0.877817 0.064222 -0.923856 0.000000 0.382672 0.000000 0.000000
-0.143244 0.942039 0.059333 -0.856685 0.374340 0.354839 1.000000 0.000000
-0.155046 0.942039 -0.000000 -0.927274 0.374340 0.000000 1.000000 1.000000
-0.059334 0.722772 0.024577 -0.372387 -0.915159 0.154241 0.000000 0.000000
-0.109634 0.759151 0.045412 -0.664113 -0.695151 0.275094 1.000000 0.000000
-0.143244 0.942039 0.059333 -0.856685 0.374340 0.354839 0.000000 0.000000
-0.109634 0.996484 0.045412 -0.664113 0.695151 0.275094 1.000000 0.000000
-0.118667 0.996484 -0.000000 -0.718833 0.695151 0.000000 1.000000 1.000000
-0.109634 0.759151 0.045412 -0.664113 -0.695151 0.275094 0.000000 0.000000
-0.143244 0.813595 0.059333 -0.856685 -0.374340 0.354839 1.000000 0.000000
-0.118667 0.759151 -0.000000 -0.718833 -0.695151 0.000000 1.000000 1.000000
-0.109634 0.996484 0.045412 -0.664113 0.695151 0.275094 0.000000 0.000000
-0.059334 1.032863 0.024577 -0.372387 0.915159 0.154241 1.000000 0.000000
-0.143244 0.813595 0.059333 -0.856685 -0.374340 0.354839 0.000000 0.000000
-0.155046 0.877817 0.064222 -0.923856 0.000000 0.382672 1.000000 0.000000
-0.167821 0.877817 -0.000000 -1.000000 0.000000 0.000000 1.000000 1.000000
0.000000 -0.000900 -0.187500 0.000000 0.665700 -0.746178 1.000000 0.000000
-0.132582 -0.000900 -0.132583 -0.527635 0.665700 -0.527635 1.000000 1.000000
0.071753 -0.000900 -0.173227 0.285531 0.665700 -0.689383 1.000000 0.000000
-0.132582 -0.000900 -0.132583 -0.527635 0.665700 -0.527635 1.000000 0.000000
-0.173227 -0.000900 -0.071753 -0.689383 0.665700 -0.285531 1.000000 1.000000
0.132583 -0.000900 -0.132583 0.527635 0.665700 -0.527635 1.000000 0.000000
-0.173227 -0.000900 -0.071753 -0.689383 0.665700 -0.285531 1.000000 0.000000
0.173227 -0.000900 -0.071753 0.689383 0.665700 -0.285531 1.000000 0.000000
-0.187500 -0.000900 -0.000000 -0.746178 0.665700 0.000000 1.000000 0.000000
0.187500 -0.000900 0.000000 0.746178 0.665700 0.000000 1.000000 0.000000
0.132583 -0.000900 0.132583 0.527635 0.665700 0.527635 1.000000 1.000000
-0.071753 -0.000900 -0.173227 -0.285531 0.665700 -0.689383 1.000000 0.000000
-0.173227 -0.000900 0.071753 -0.689383 0.665700 0.285531 1.000000 0.000000
0.132583 -0.000900 0.132583 0.527635 0.665700 0.527635 1.000000 0.000000
-0.132583 -0.000900 0.132583 -0.527635 0.665700 0.527635 1.000000 0.000000
-0.071753 -0.000900 0.173227 -0.285531 0.665700 0.689383 1.000000 1.000000
0.071753 -0.000900 0.173227 0.285531 0.665700 0.689383 1.000000 0.000000
0.173227 -0.000900 0.071753 0.689383 0.665700 0.285531 1.000000 0.000000
0.000000 -0.000900 0.187500 0.000000 0.665700 0.746178 1.000000 0.000000
-0.062500 0.762313 -0.000000 -0.515854 0.856655 0.000000 0.000000 0.000000
-0.057742 0.762313 0.023918 -0.476608 0.856655 0.197394 0.000000 0.000000
3 0 1 2
3 3 4 5
3 6 7 8
3 9 10 11
3 12 13 14
3 15 16 17
3 18 19 20
3 21 22 23
3 24 25 26
3 27 28 29
3 30 31 32
3 33 34 35
3 36 37 38
3 39 40 41
3 42 43 44
3 45 46 47
3 48 49 50
3 51 52 53
3 54 55 56
3 57 58 59
3 60 61 62
3 63 64 65
3 66 67 68
3 69 70 71
3 72 73 74
3 75 76 77
3 78 79 80
3 81 82 83
3 84 85 86
3 87 88 89
3 90 91 92
3 93 94 95
3 96 97 98
3 99 100 101
3 102 103 104
3 105 106 107
3 108 109 110
3 111 112 65
3 113 114 20
3 115 116 117
3 118 119 74
3 120 121 122
3 123 124 125
3 126 127 128
3 129 130 86
3 131 132 133
3 134 135 44
3 136 137 138
3 139 1 140
3 141 22 140
3 142 4 140
3 143 46 140
3 144 7 140
3 145 40 140
3 146 10 140
3 147 34 29
3 147 37 32
3 146 148 14
3 149 148 150
3 151 148 152
3 153 43 140
3 154 28 140
3 155 25 140
3 156 37 140
3 157 158 159
3 160 161 162
3 163 164 165
3 166 167 168
3 169 170 171
3 172 173 162
3 174 175 176
3 177 178 179
3 180 181 182
3 183 184 185
3 186 187 182
3 188 189 176
3 190 191 192
3 193 194 195
3 196 197 198
3 199 200 201
3 202 203 204
3 205 206 207
3 208 209 210
3 211 212 213
3 214 215 210
3 216 217 213
3 218 219 220
3 221 222 223
3 224 225 226
3 227 228 229
3 230 231 232
3 233 234 235
3 236 237 232
3 238 239 240
3 241 242 243
3 244 245 246
3 247 248 243
3 249 250 251
3 252 253 254
3 255 256 257
3 258 259 260
3 261 262 263
3 264 265 266
3 267 268 269
3 270 271 272
3 273 274 275
3 276 277 278
3 279 280 281
3 282 283 284
3 285 286 287
3 288 289 284
3 290 291 292
3 293 294 295
3 296 297 298
3 299 300 301
3 302 303 304
3 305 306 307
3 308 309 295
3 310 311 312
3 313 314 315
3 316 317 318
3 319 320 321
3 322 323 324
3 325 326 312
3 327 328 329
3 330 331 332
3 333 334 335
3 336 337 338
3 339 340 341
3 342 343 338
3 344 345 346
3 347 348 349
3 350 351 352
3 353 354 355
3 356 357 352
3 358 359 360
3 361 362 363
3 364 365 366
3 367 368 369
3 370 371 366
3 372 373 374
3 375 376 377
3 378 379 380
3 381 382 383
3 384 385 386
3 387 388 383
3 389 390 391
3 392 393 394
3 395 396 397
3 398 399 400
3 401 402 403
3 404 405 406
3 407 408 409
3 410 411 397
3 412 413 414
3 415 416 417
3 412 418 419
3 420 416 421
3 412 422 423
3 424 416 204
3 412 425 426
3 427 416 220
3 412 428 229
3 429 416 430
3 412 431 432
3 433 416 254
3 412 434 435
3 436 416 272
3 412 437 438
3 439 416 440
3 412 441 298
3 442 416 307
3 412 443 444
3 445 416 324
3 412 446 447
3 448 416 341
3 412 449 349
3 450 416 451
3 412 452 453
3 454 416 374
3 412 455 456
3 457 416 391
3 412 458 400
3 459 416 409
3 412 460 461
3 462 416 463
3 464 465 466
3 467 468 461
3 469 470 471
3 472 473 474
3 475 476 463
3 477 478 479
3 51 480 481
3 3 97 2
3 54 482 481
3 54 483 484
3 57 485 484
3 57 486 80
3 60 487 80
3 87 488 80
3 63 489 490
3 48 491 481
3 66 492 77
3 69 493 77
3 69 494 495
3 72 496 495
3 60 492 490
3 6 100 5
3 9 103 8
3 12 106 11
3 15 109 14
3 358 371 355
3 36 132 86
3 24 116 23
3 27 119 26
3 30 121 29
3 33 124 32
3 299 311 295
3 410 473 406
3 45 132 41
3 149 19 17
3 42 137 47
3 51 480 50
3 54 482 53
3 33 130 128
3 415 187 162
3 63 489 62
3 66 497 65
3 69 493 68
3 401 465 397
3 75 498 74
3 151 22 20
3 120 79 77
3 15 114 65
3 87 488 86
3 93 486 89
3 48 491 92
3 252 265 243
3 99 49 98
3 102 52 101
3 105 55 104
3 108 58 107
3 111 61 110
3 105 61 59
3 115 67 20
3 118 70 117
3 218 231 210
3 123 76 122
3 126 79 125
3 327 359 338
3 499 40 38
3 136 88 133
3 96 91 44
3 134 94 138
3 183 170 159
3 136 91 95
3 188 158 165
3 174 164 168
3 177 413 171
3 180 167 162
3 392 405 383
3 193 418 179
3 196 175 182
3 199 178 185
3 404 468 400
3 205 184 176
3 208 206 192
3 211 422 195
3 214 191 198
3 216 194 201
3 218 197 204
3 221 200 207
3 224 222 210
3 227 425 213
3 143 1 44
3 102 58 56
3 236 215 220
3 238 217 223
3 241 239 226
3 450 373 352
3 247 225 232
3 249 228 235
3 255 234 240
3 258 256 243
3 261 431 246
3 500 37 35
3 267 245 251
3 270 248 254
3 273 250 257
3 276 274 260
3 279 434 263
3 282 259 266
3 285 262 269
3 288 265 272
3 290 268 275
3 293 291 278
3 296 437 281
3 299 277 284
3 302 280 287
3 316 328 312
3 308 286 292
3 24 121 74
3 439 306 284
3 316 294 301
3 302 314 298
3 322 300 307
3 325 303 295
3 221 234 213
3 330 443 315
3 333 311 318
3 336 314 321
3 339 317 324
3 342 320 312
3 308 320 304
3 347 446 332
3 350 328 335
3 353 331 338
3 356 334 341
3 420 203 182
3 361 359 346
3 333 345 329
3 367 345 352
3 375 388 366
3 429 253 232
3 375 354 360
3 378 376 363
3 381 452 366
3 384 362 369
3 353 365 349
3 389 368 374
3 392 371 377
3 395 393 380
3 398 455 383
3 401 379 386
3 126 85 83
3 407 385 391
3 410 388 394
3 180 191 176
3 233 245 229
3 469 396 403
3 115 73 71
3 475 402 409
3 477 405 397
3 166 478 466
3 472 170 461
3 172 465 471
3 477 158 474
3 160 470 463
3 163 473 479
3 123 82 80
